<svg xmlns="http://www.w3.org/2000/svg" xmlns:xlink="http://www.w3.org/1999/xlink" width="500" zoomAndPan="magnify" viewBox="0 0 375 374.999991" height="500" preserveAspectRatio="xMidYMid meet" version="1.0"><defs><g/><clipPath id="d78757177f"><path d="M 133.597656 85.945312 L 241.597656 85.945312 L 241.597656 187.945312 L 133.597656 187.945312 Z M 133.597656 85.945312 " clip-rule="nonzero"/></clipPath></defs><g clip-path="url(#d78757177f)"><path fill="#a855f7" d="M 187.710938 188.085938 C 179.804688 188.085938 173.394531 177.007812 173.394531 169.101562 C 173.394531 161.191406 179.804688 154.78125 187.710938 154.78125 C 195.617188 154.78125 202.027344 161.191406 202.027344 169.101562 C 202.027344 177.007812 195.617188 188.085938 187.710938 188.085938 M 186.011719 161.523438 C 182.457031 161.523438 179.796875 161.773438 179.796875 165.5625 C 179.796875 169.933594 183.339844 173.476562 187.710938 173.476562 C 192.082031 173.476562 195.625 169.933594 195.625 165.5625 C 195.625 161.773438 192.960938 161.523438 189.410156 161.523438 C 188.859375 161.523438 188.292969 161.527344 187.710938 161.527344 C 187.128906 161.527344 186.558594 161.523438 186.011719 161.523438 M 207.34375 133.625 C 205.816406 133.625 204.566406 134.855469 204.5625 136.390625 C 204.550781 137.925781 205.789062 139.183594 207.324219 139.191406 C 207.332031 139.191406 207.339844 139.191406 207.34375 139.191406 C 208.875 139.191406 210.117188 137.953125 210.125 136.425781 C 210.132812 134.886719 208.898438 133.632812 207.359375 133.625 C 207.355469 133.625 207.347656 133.625 207.34375 133.625 M 168.019531 131.746094 C 167.949219 131.746094 167.878906 131.769531 167.820312 131.828125 L 165.910156 133.675781 C 165.851562 133.730469 165.820312 133.804688 165.820312 133.878906 L 165.792969 138.792969 C 165.789062 138.949219 165.921875 139.082031 166.078125 139.085938 L 169.875 139.109375 C 170.039062 139.109375 170.167969 138.976562 170.171875 138.820312 L 170.199219 133.90625 C 170.199219 133.828125 170.164062 133.753906 170.113281 133.699219 L 168.222656 131.828125 C 168.167969 131.773438 168.09375 131.746094 168.019531 131.746094 M 202.03125 128.3125 C 200.5 128.3125 199.253906 129.546875 199.242188 131.082031 C 199.238281 132.617188 200.472656 133.871094 202.011719 133.878906 C 202.019531 133.878906 202.023438 133.878906 202.03125 133.878906 C 203.558594 133.878906 204.804688 132.644531 204.8125 131.113281 C 204.824219 129.578125 203.582031 128.324219 202.042969 128.3125 C 202.039062 128.3125 202.035156 128.3125 202.03125 128.3125 M 212.652344 128.308594 C 211.121094 128.308594 209.878906 129.542969 209.871094 131.078125 C 209.859375 132.617188 211.097656 133.867188 212.636719 133.878906 C 212.640625 133.878906 212.648438 133.878906 212.652344 133.878906 C 214.179688 133.878906 215.429688 132.640625 215.4375 131.109375 C 215.445312 129.570312 214.207031 128.316406 212.671875 128.308594 C 212.664062 128.308594 212.65625 128.308594 212.652344 128.308594 M 170.867188 128.894531 C 170.789062 128.894531 170.71875 128.925781 170.660156 128.980469 L 168.789062 130.867188 C 168.679688 130.980469 168.675781 131.160156 168.789062 131.273438 L 170.632812 133.183594 C 170.691406 133.238281 170.761719 133.269531 170.84375 133.269531 L 175.753906 133.296875 C 175.753906 133.296875 175.757812 133.296875 175.757812 133.296875 C 175.914062 133.296875 176.042969 133.171875 176.042969 133.011719 L 176.066406 129.214844 C 176.066406 129.054688 175.941406 128.925781 175.78125 128.921875 L 170.867188 128.894531 M 160.300781 128.828125 C 160.140625 128.828125 160.007812 128.957031 160.007812 129.117188 L 159.984375 132.917969 C 159.984375 133.078125 160.113281 133.207031 160.273438 133.207031 L 165.183594 133.234375 C 165.261719 133.234375 165.335938 133.207031 165.390625 133.152344 L 167.261719 131.265625 C 167.371094 131.152344 167.375 130.972656 167.265625 130.855469 L 165.417969 128.949219 C 165.363281 128.890625 165.289062 128.859375 165.210938 128.859375 L 160.300781 128.828125 M 189.65625 130.761719 C 189.394531 130.761719 189.183594 130.972656 189.183594 131.234375 L 189.183594 131.808594 C 189.183594 132.070312 189.394531 132.28125 189.65625 132.28125 L 192.53125 132.28125 C 192.792969 132.28125 193.007812 132.070312 193.007812 131.808594 L 193.007812 131.234375 C 193.007812 130.972656 192.792969 130.761719 192.53125 130.761719 L 189.65625 130.761719 M 182.886719 130.761719 C 182.625 130.761719 182.414062 130.972656 182.414062 131.234375 L 182.414062 131.808594 C 182.414062 132.070312 182.625 132.28125 182.886719 132.28125 L 185.765625 132.28125 C 186.027344 132.28125 186.238281 132.070312 186.238281 131.808594 L 186.238281 131.234375 C 186.238281 130.972656 186.027344 130.761719 185.765625 130.761719 L 182.886719 130.761719 M 166.175781 123.023438 C 166.015625 123.023438 165.882812 123.152344 165.882812 123.308594 L 165.855469 128.226562 C 165.855469 128.300781 165.882812 128.375 165.941406 128.433594 L 167.828125 130.300781 C 167.886719 130.359375 167.960938 130.386719 168.03125 130.386719 C 168.105469 130.386719 168.175781 130.359375 168.234375 130.304688 L 170.140625 128.457031 C 170.199219 128.402344 170.230469 128.328125 170.230469 128.25 L 170.261719 123.335938 C 170.261719 123.175781 170.132812 123.046875 169.972656 123.046875 L 166.175781 123.023438 M 207.335938 123 C 205.808594 123 204.5625 124.234375 204.554688 125.769531 C 204.542969 127.304688 205.785156 128.558594 207.320312 128.570312 C 207.324219 128.570312 207.328125 128.570312 207.335938 128.570312 C 208.867188 128.570312 210.109375 127.332031 210.121094 125.800781 C 210.128906 124.261719 208.890625 123.007812 207.355469 123 C 207.347656 123 207.339844 123 207.335938 123 M 138.644531 117.589844 C 138.070312 117.589844 137.503906 117.324219 137.148438 116.8125 C 134.945312 113.632812 133.648438 109.773438 133.648438 105.613281 C 133.648438 94.746094 142.457031 85.945312 153.320312 85.945312 C 160.472656 85.945312 166.734375 89.761719 170.175781 95.472656 C 170.765625 96.453125 170.316406 97.730469 169.246094 98.136719 C 158.171875 102.367188 148.214844 108.859375 139.945312 117.054688 C 139.582031 117.414062 139.109375 117.589844 138.644531 117.589844 M 236.355469 117.589844 C 235.886719 117.589844 235.417969 117.414062 235.054688 117.054688 C 226.78125 108.859375 216.828125 102.367188 205.753906 98.136719 C 204.679688 97.730469 204.230469 96.453125 204.824219 95.472656 C 208.265625 89.761719 214.523438 85.945312 221.679688 85.945312 C 232.539062 85.945312 241.347656 94.746094 241.347656 105.613281 C 241.347656 109.773438 240.054688 113.632812 237.847656 116.8125 C 237.492188 117.324219 236.925781 117.589844 236.355469 117.589844 M 221.457031 157.742188 C 213.566406 157.742188 211.796875 154.476562 209.347656 152.300781 C 206.894531 150.125 198.597656 141.550781 187.710938 141.550781 C 176.824219 141.550781 168.523438 150.125 166.074219 152.300781 C 163.625 154.476562 161.855469 157.742188 153.964844 157.742188 C 150.257812 157.742188 147.511719 155.523438 145.578125 152.742188 C 142.664062 148.542969 142.019531 143.183594 143.625 138.328125 C 146.777344 128.804688 152.453125 122.808594 156.59375 119.207031 C 159.082031 117.042969 162.40625 116.097656 165.765625 116.097656 C 167.195312 116.097656 168.628906 116.265625 170.007812 116.589844 C 174.628906 117.667969 182.1875 120.75 185.886719 120.75 L 189.535156 120.75 C 193.234375 120.75 200.792969 117.667969 205.414062 116.589844 C 206.792969 116.265625 208.226562 116.097656 209.65625 116.097656 C 213.015625 116.097656 216.339844 117.042969 218.828125 119.207031 C 222.96875 122.808594 228.644531 128.804688 231.796875 138.328125 C 233.398438 143.183594 232.757812 148.542969 229.839844 152.742188 C 227.910156 155.523438 225.164062 157.742188 221.457031 157.742188 " fill-opacity="1" fill-rule="nonzero"/></g><g fill="#000000" fill-opacity="1"><g transform="translate(74.433877, 242.937699)"><g><path d="M 30.246094 -18.722656 L 18.722656 -18.722656 L 30.246094 -21.605469 L 30.246094 -37.449219 L 1.441406 -37.449219 L 1.441406 0 L 30.246094 0 Z M 18.722656 -23.042969 L 12.960938 -23.042969 L 12.960938 -28.804688 L 18.722656 -28.804688 Z M 18.722656 -14.402344 L 18.722656 -8.640625 L 12.960938 -8.640625 L 12.960938 -14.402344 Z M 18.722656 -14.402344 "/></g></g></g><g fill="#000000" fill-opacity="1"><g transform="translate(106.119132, 242.937699)"><g><path d="M 12.960938 0 L 12.960938 -14.402344 L 18.722656 -14.402344 L 18.722656 2.878906 L 30.246094 0 L 30.246094 -37.449219 L 1.441406 -37.449219 L 1.441406 0 Z M 18.722656 -23.042969 L 12.960938 -23.042969 L 12.960938 -28.804688 L 18.722656 -28.804688 Z M 18.722656 -23.042969 "/></g></g></g><g fill="#000000" fill-opacity="1"><g transform="translate(137.804386, 242.937699)"><g><path d="M 1.441406 0 L 30.246094 0 L 30.246094 -43.210938 L 18.722656 -40.328125 L 18.722656 -37.449219 L 1.441406 -37.449219 Z M 12.960938 -8.640625 L 12.960938 -28.804688 L 18.722656 -28.804688 L 18.722656 -8.640625 Z M 12.960938 -8.640625 "/></g></g></g><g fill="#000000" fill-opacity="1"><g transform="translate(169.489641, 242.937699)"><g/></g></g><g fill="#000000" fill-opacity="1"><g transform="translate(173.810358, 242.937699)"><g><path d="M 30.246094 -18.722656 L 18.722656 -18.722656 L 30.246094 -21.605469 L 30.246094 -37.449219 L 1.441406 -37.449219 L 1.441406 0 L 30.246094 0 Z M 18.722656 -23.042969 L 12.960938 -23.042969 L 12.960938 -28.804688 L 18.722656 -28.804688 Z M 18.722656 -14.402344 L 18.722656 -8.640625 L 12.960938 -8.640625 L 12.960938 -14.402344 Z M 18.722656 -14.402344 "/></g></g></g><g fill="#000000" fill-opacity="1"><g transform="translate(205.495612, 242.937699)"><g><path d="M 30.246094 -28.804688 L 30.246094 -37.449219 L 1.441406 -37.449219 L 1.441406 0 L 30.246094 0 L 30.246094 -8.640625 L 12.960938 -8.640625 L 12.960938 -28.804688 Z M 30.246094 -14.402344 L 30.246094 -23.042969 L 15.84375 -23.042969 L 15.84375 -14.402344 Z M 30.246094 -14.402344 "/></g></g></g><g fill="#000000" fill-opacity="1"><g transform="translate(237.180867, 242.937699)"><g><path d="M 12.960938 0 L 12.960938 -14.402344 L 18.722656 -14.402344 L 18.722656 2.878906 L 30.246094 0 L 30.246094 -37.449219 L 1.441406 -37.449219 L 1.441406 0 Z M 18.722656 -23.042969 L 12.960938 -23.042969 L 12.960938 -28.804688 L 18.722656 -28.804688 Z M 18.722656 -23.042969 "/></g></g></g><g fill="#000000" fill-opacity="1"><g transform="translate(268.866122, 242.937699)"><g><path d="M 30.246094 0 L 30.246094 -18.722656 L 18.722656 -18.722656 L 30.246094 -21.605469 L 30.246094 -37.449219 L 1.441406 -37.449219 L 1.441406 0 L 12.960938 0 L 12.960938 -14.402344 L 18.722656 -14.402344 L 18.722656 2.878906 Z M 18.722656 -23.042969 L 12.960938 -23.042969 L 12.960938 -28.804688 L 18.722656 -28.804688 Z M 18.722656 -23.042969 "/></g></g></g><g fill="#a855f7" fill-opacity="1"><g transform="translate(154.661355, 272.287686)"><g><path d="M 0.671875 -10.484375 L 8.109375 -10.484375 L 8.109375 -8.25 L 3.328125 -8.25 L 3.328125 -6.28125 L 6.828125 -6.28125 L 6.828125 -4.203125 L 3.328125 -4.203125 L 3.328125 -2.234375 L 8.109375 -2.234375 L 8.109375 0 L 0.671875 0 Z M 0.671875 -10.484375 "/></g></g></g><g fill="#a855f7" fill-opacity="1"><g transform="translate(163.151349, 272.287686)"><g><path d="M 3.9375 0.21875 C 3.28125 0.21875 2.625 0.15625 1.96875 0.03125 C 1.320312 -0.09375 0.789062 -0.265625 0.375 -0.484375 L 0.375 -2.859375 C 0.914062 -2.578125 1.476562 -2.367188 2.0625 -2.234375 C 2.644531 -2.097656 3.203125 -2.03125 3.734375 -2.03125 C 4.222656 -2.03125 4.59375 -2.101562 4.84375 -2.25 C 5.09375 -2.394531 5.21875 -2.609375 5.21875 -2.890625 C 5.21875 -3.097656 5.148438 -3.28125 5.015625 -3.4375 C 4.878906 -3.59375 4.679688 -3.734375 4.421875 -3.859375 C 4.160156 -3.992188 3.753906 -4.175781 3.203125 -4.40625 C 2.234375 -4.820312 1.53125 -5.28125 1.09375 -5.78125 C 0.65625 -6.28125 0.4375 -6.894531 0.4375 -7.625 C 0.4375 -8.21875 0.601562 -8.75 0.9375 -9.21875 C 1.269531 -9.695312 1.734375 -10.0625 2.328125 -10.3125 C 2.929688 -10.570312 3.625 -10.703125 4.40625 -10.703125 C 5.050781 -10.703125 5.625 -10.648438 6.125 -10.546875 C 6.625 -10.453125 7.101562 -10.296875 7.5625 -10.078125 L 7.5625 -7.75 C 6.675781 -8.207031 5.789062 -8.4375 4.90625 -8.4375 C 4.425781 -8.4375 4.039062 -8.359375 3.75 -8.203125 C 3.46875 -8.054688 3.328125 -7.835938 3.328125 -7.546875 C 3.328125 -7.253906 3.472656 -7.015625 3.765625 -6.828125 C 4.054688 -6.648438 4.59375 -6.410156 5.375 -6.109375 C 6.082031 -5.816406 6.632812 -5.53125 7.03125 -5.25 C 7.425781 -4.96875 7.710938 -4.640625 7.890625 -4.265625 C 8.066406 -3.898438 8.15625 -3.429688 8.15625 -2.859375 C 8.15625 -1.890625 7.800781 -1.132812 7.09375 -0.59375 C 6.394531 -0.0507812 5.34375 0.21875 3.9375 0.21875 Z M 3.9375 0.21875 "/></g></g></g><g fill="#a855f7" fill-opacity="1"><g transform="translate(171.68634, 272.287686)"><g><path d="M 0.671875 -10.484375 L 5.296875 -10.484375 C 6.515625 -10.484375 7.488281 -10.160156 8.21875 -9.515625 C 8.945312 -8.878906 9.3125 -7.988281 9.3125 -6.84375 C 9.3125 -5.65625 8.945312 -4.738281 8.21875 -4.09375 C 7.5 -3.457031 6.523438 -3.140625 5.296875 -3.140625 L 3.328125 -3.140625 L 3.328125 0 L 0.671875 0 Z M 4.875 -5.375 C 5.40625 -5.375 5.820312 -5.484375 6.125 -5.703125 C 6.425781 -5.921875 6.578125 -6.300781 6.578125 -6.84375 C 6.578125 -7.382812 6.425781 -7.753906 6.125 -7.953125 C 5.832031 -8.148438 5.414062 -8.25 4.875 -8.25 L 3.328125 -8.25 L 3.328125 -5.375 Z M 4.875 -5.375 "/></g></g></g><g fill="#a855f7" fill-opacity="1"><g transform="translate(181.226329, 272.287686)"><g><path d="M 6.015625 0.21875 C 4.953125 0.21875 3.992188 -0.0078125 3.140625 -0.46875 C 2.285156 -0.925781 1.609375 -1.566406 1.109375 -2.390625 C 0.617188 -3.210938 0.375 -4.160156 0.375 -5.234375 C 0.375 -6.304688 0.617188 -7.253906 1.109375 -8.078125 C 1.609375 -8.910156 2.285156 -9.554688 3.140625 -10.015625 C 3.992188 -10.472656 4.953125 -10.703125 6.015625 -10.703125 C 7.066406 -10.703125 8.019531 -10.472656 8.875 -10.015625 C 9.726562 -9.554688 10.398438 -8.910156 10.890625 -8.078125 C 11.378906 -7.253906 11.625 -6.304688 11.625 -5.234375 C 11.625 -4.160156 11.378906 -3.210938 10.890625 -2.390625 C 10.398438 -1.566406 9.726562 -0.925781 8.875 -0.46875 C 8.019531 -0.0078125 7.066406 0.21875 6.015625 0.21875 Z M 6.015625 -2.265625 C 6.546875 -2.265625 7.03125 -2.382812 7.46875 -2.625 C 7.90625 -2.863281 8.253906 -3.207031 8.515625 -3.65625 C 8.773438 -4.101562 8.90625 -4.628906 8.90625 -5.234375 C 8.90625 -5.835938 8.773438 -6.359375 8.515625 -6.796875 C 8.265625 -7.242188 7.921875 -7.585938 7.484375 -7.828125 C 7.046875 -8.078125 6.554688 -8.203125 6.015625 -8.203125 C 5.460938 -8.203125 4.96875 -8.078125 4.53125 -7.828125 C 4.09375 -7.585938 3.742188 -7.242188 3.484375 -6.796875 C 3.234375 -6.359375 3.109375 -5.835938 3.109375 -5.234375 C 3.109375 -4.628906 3.234375 -4.101562 3.484375 -3.65625 C 3.742188 -3.207031 4.09375 -2.863281 4.53125 -2.625 C 4.976562 -2.382812 5.472656 -2.265625 6.015625 -2.265625 Z M 6.015625 -2.265625 "/></g></g></g><g fill="#a855f7" fill-opacity="1"><g transform="translate(193.226317, 272.287686)"><g><path d="M 0.671875 -10.484375 L 5.390625 -10.484375 C 6.617188 -10.484375 7.578125 -10.171875 8.265625 -9.546875 C 8.960938 -8.929688 9.3125 -8.046875 9.3125 -6.890625 C 9.3125 -6.109375 9.140625 -5.441406 8.796875 -4.890625 C 8.460938 -4.335938 7.984375 -3.925781 7.359375 -3.65625 L 9.21875 0 L 6.5 0 L 4.828125 -3.28125 L 3.328125 -3.28125 L 3.328125 0 L 0.671875 0 Z M 4.921875 -5.515625 C 5.453125 -5.515625 5.859375 -5.617188 6.140625 -5.828125 C 6.429688 -6.035156 6.578125 -6.390625 6.578125 -6.890625 C 6.578125 -7.410156 6.4375 -7.765625 6.15625 -7.953125 C 5.875 -8.148438 5.460938 -8.25 4.921875 -8.25 L 3.328125 -8.25 L 3.328125 -5.515625 Z M 4.921875 -5.515625 "/></g></g></g><g fill="#a855f7" fill-opacity="1"><g transform="translate(202.916303, 272.287686)"><g><path d="M 3.109375 -8.25 L 0.15625 -8.25 L 0.15625 -10.484375 L 8.734375 -10.484375 L 8.734375 -8.25 L 5.765625 -8.25 L 5.765625 0 L 3.109375 0 Z M 3.109375 -8.25 "/></g></g></g><g fill="#a855f7" fill-opacity="1"><g transform="translate(211.7963, 272.287686)"><g><path d="M 3.9375 0.21875 C 3.28125 0.21875 2.625 0.15625 1.96875 0.03125 C 1.320312 -0.09375 0.789062 -0.265625 0.375 -0.484375 L 0.375 -2.859375 C 0.914062 -2.578125 1.476562 -2.367188 2.0625 -2.234375 C 2.644531 -2.097656 3.203125 -2.03125 3.734375 -2.03125 C 4.222656 -2.03125 4.59375 -2.101562 4.84375 -2.25 C 5.09375 -2.394531 5.21875 -2.609375 5.21875 -2.890625 C 5.21875 -3.097656 5.148438 -3.28125 5.015625 -3.4375 C 4.878906 -3.59375 4.679688 -3.734375 4.421875 -3.859375 C 4.160156 -3.992188 3.753906 -4.175781 3.203125 -4.40625 C 2.234375 -4.820312 1.53125 -5.28125 1.09375 -5.78125 C 0.65625 -6.28125 0.4375 -6.894531 0.4375 -7.625 C 0.4375 -8.21875 0.601562 -8.75 0.9375 -9.21875 C 1.269531 -9.695312 1.734375 -10.0625 2.328125 -10.3125 C 2.929688 -10.570312 3.625 -10.703125 4.40625 -10.703125 C 5.050781 -10.703125 5.625 -10.648438 6.125 -10.546875 C 6.625 -10.453125 7.101562 -10.296875 7.5625 -10.078125 L 7.5625 -7.75 C 6.675781 -8.207031 5.789062 -8.4375 4.90625 -8.4375 C 4.425781 -8.4375 4.039062 -8.359375 3.75 -8.203125 C 3.46875 -8.054688 3.328125 -7.835938 3.328125 -7.546875 C 3.328125 -7.253906 3.472656 -7.015625 3.765625 -6.828125 C 4.054688 -6.648438 4.59375 -6.410156 5.375 -6.109375 C 6.082031 -5.816406 6.632812 -5.53125 7.03125 -5.25 C 7.425781 -4.96875 7.710938 -4.640625 7.890625 -4.265625 C 8.066406 -3.898438 8.15625 -3.429688 8.15625 -2.859375 C 8.15625 -1.890625 7.800781 -1.132812 7.09375 -0.59375 C 6.394531 -0.0507812 5.34375 0.21875 3.9375 0.21875 Z M 3.9375 0.21875 "/></g></g></g></svg>